<mxfile host="app.diagrams.net" modified="2024-03-27T23:01:36.009Z" agent="Mozilla/5.0 (Windows NT 10.0; Win64; x64) AppleWebKit/537.36 (KHTML, like Gecko) Chrome/123.0.0.0 Safari/537.36" etag="rWp1B-XLwXujf_G-UUSU" version="24.2.0" type="google">
  <diagram name="Page-1" id="zbVy7kDy6rZHzXr9kf1-">
    <mxGraphModel grid="1" page="1" gridSize="10" guides="1" tooltips="1" connect="1" arrows="1" fold="1" pageScale="1" pageWidth="850" pageHeight="1100" math="0" shadow="0">
      <root>
        <mxCell id="0" />
        <mxCell id="1" parent="0" />
        <mxCell id="SHzlHycUWzozJn87RdSD-1" value="Evento" style="swimlane;fontStyle=1;align=center;verticalAlign=top;childLayout=stackLayout;horizontal=1;startSize=26;horizontalStack=0;resizeParent=1;resizeParentMax=0;resizeLast=0;collapsible=1;marginBottom=0;whiteSpace=wrap;html=1;" vertex="1" parent="1">
          <mxGeometry x="260" y="30" width="300" height="240" as="geometry" />
        </mxCell>
        <mxCell id="SHzlHycUWzozJn87RdSD-2" value="- titulo: String&lt;div&gt;- descricao: String&lt;/div&gt;&lt;div&gt;- dataInicio: Date&lt;/div&gt;&lt;div&gt;- dataFim: Date&lt;/div&gt;&lt;div&gt;- localizacao: String&lt;/div&gt;&lt;div&gt;- participantes: List &amp;lt;String&amp;gt;&lt;/div&gt;" style="text;strokeColor=none;fillColor=none;align=left;verticalAlign=top;spacingLeft=4;spacingRight=4;overflow=hidden;rotatable=0;points=[[0,0.5],[1,0.5]];portConstraint=eastwest;whiteSpace=wrap;html=1;" vertex="1" parent="SHzlHycUWzozJn87RdSD-1">
          <mxGeometry y="26" width="300" height="104" as="geometry" />
        </mxCell>
        <mxCell id="SHzlHycUWzozJn87RdSD-3" value="" style="line;strokeWidth=1;fillColor=none;align=left;verticalAlign=middle;spacingTop=-1;spacingLeft=3;spacingRight=3;rotatable=0;labelPosition=right;points=[];portConstraint=eastwest;strokeColor=inherit;" vertex="1" parent="SHzlHycUWzozJn87RdSD-1">
          <mxGeometry y="130" width="300" height="8" as="geometry" />
        </mxCell>
        <mxCell id="SHzlHycUWzozJn87RdSD-4" value="&lt;div&gt;+ adicionarParticipante(participante: String): void&amp;nbsp; &amp;nbsp; &amp;nbsp;.&lt;/div&gt;&lt;div&gt;.+ removerParticipante(participante: String): void&amp;nbsp; &amp;nbsp; &amp;nbsp; &amp;nbsp;.&lt;/div&gt;&lt;div&gt;.+ imprimirListaParticipantes():&lt;/div&gt;" style="text;strokeColor=none;fillColor=none;align=left;verticalAlign=top;spacingLeft=4;spacingRight=4;overflow=hidden;rotatable=0;points=[[0,0.5],[1,0.5]];portConstraint=eastwest;whiteSpace=wrap;html=1;" vertex="1" parent="SHzlHycUWzozJn87RdSD-1">
          <mxGeometry y="138" width="300" height="102" as="geometry" />
        </mxCell>
        <mxCell id="SHzlHycUWzozJn87RdSD-7" value="EventoRecorente" style="swimlane;fontStyle=1;align=center;verticalAlign=top;childLayout=stackLayout;horizontal=1;startSize=26;horizontalStack=0;resizeParent=1;resizeParentMax=0;resizeLast=0;collapsible=1;marginBottom=0;whiteSpace=wrap;html=1;" vertex="1" parent="1">
          <mxGeometry x="30" y="370" width="260" height="60" as="geometry" />
        </mxCell>
        <mxCell id="SHzlHycUWzozJn87RdSD-8" value="- diaSemana: List&amp;lt;diaSemana&amp;gt;" style="text;strokeColor=none;fillColor=none;align=left;verticalAlign=top;spacingLeft=4;spacingRight=4;overflow=hidden;rotatable=0;points=[[0,0.5],[1,0.5]];portConstraint=eastwest;whiteSpace=wrap;html=1;" vertex="1" parent="SHzlHycUWzozJn87RdSD-7">
          <mxGeometry y="26" width="260" height="26" as="geometry" />
        </mxCell>
        <mxCell id="SHzlHycUWzozJn87RdSD-9" value="" style="line;strokeWidth=1;fillColor=none;align=left;verticalAlign=middle;spacingTop=-1;spacingLeft=3;spacingRight=3;rotatable=0;labelPosition=right;points=[];portConstraint=eastwest;strokeColor=inherit;" vertex="1" parent="SHzlHycUWzozJn87RdSD-7">
          <mxGeometry y="52" width="260" height="8" as="geometry" />
        </mxCell>
        <mxCell id="SHzlHycUWzozJn87RdSD-11" value="EventoUnico" style="swimlane;fontStyle=1;align=center;verticalAlign=top;childLayout=stackLayout;horizontal=1;startSize=26;horizontalStack=0;resizeParent=1;resizeParentMax=0;resizeLast=0;collapsible=1;marginBottom=0;whiteSpace=wrap;html=1;" vertex="1" parent="1">
          <mxGeometry x="330" y="450" width="160" height="86" as="geometry" />
        </mxCell>
        <mxCell id="SHzlHycUWzozJn87RdSD-12" value="+ field: type" style="text;strokeColor=none;fillColor=none;align=left;verticalAlign=top;spacingLeft=4;spacingRight=4;overflow=hidden;rotatable=0;points=[[0,0.5],[1,0.5]];portConstraint=eastwest;whiteSpace=wrap;html=1;" vertex="1" parent="SHzlHycUWzozJn87RdSD-11">
          <mxGeometry y="26" width="160" height="26" as="geometry" />
        </mxCell>
        <mxCell id="SHzlHycUWzozJn87RdSD-13" value="" style="line;strokeWidth=1;fillColor=none;align=left;verticalAlign=middle;spacingTop=-1;spacingLeft=3;spacingRight=3;rotatable=0;labelPosition=right;points=[];portConstraint=eastwest;strokeColor=inherit;" vertex="1" parent="SHzlHycUWzozJn87RdSD-11">
          <mxGeometry y="52" width="160" height="8" as="geometry" />
        </mxCell>
        <mxCell id="SHzlHycUWzozJn87RdSD-14" value="+ method(type): type" style="text;strokeColor=none;fillColor=none;align=left;verticalAlign=top;spacingLeft=4;spacingRight=4;overflow=hidden;rotatable=0;points=[[0,0.5],[1,0.5]];portConstraint=eastwest;whiteSpace=wrap;html=1;" vertex="1" parent="SHzlHycUWzozJn87RdSD-11">
          <mxGeometry y="60" width="160" height="26" as="geometry" />
        </mxCell>
        <mxCell id="SHzlHycUWzozJn87RdSD-19" value="EventoPeriodico" style="swimlane;fontStyle=1;align=center;verticalAlign=top;childLayout=stackLayout;horizontal=1;startSize=26;horizontalStack=0;resizeParent=1;resizeParentMax=0;resizeLast=0;collapsible=1;marginBottom=0;whiteSpace=wrap;html=1;" vertex="1" parent="1">
          <mxGeometry x="630" y="364" width="190" height="104" as="geometry" />
        </mxCell>
        <mxCell id="SHzlHycUWzozJn87RdSD-20" value="- intervalo: int&lt;div&gt;- unidadeTempo: UnidadeTempo&lt;/div&gt;" style="text;strokeColor=none;fillColor=none;align=left;verticalAlign=top;spacingLeft=4;spacingRight=4;overflow=hidden;rotatable=0;points=[[0,0.5],[1,0.5]];portConstraint=eastwest;whiteSpace=wrap;html=1;" vertex="1" parent="SHzlHycUWzozJn87RdSD-19">
          <mxGeometry y="26" width="190" height="44" as="geometry" />
        </mxCell>
        <mxCell id="SHzlHycUWzozJn87RdSD-21" value="" style="line;strokeWidth=1;fillColor=none;align=left;verticalAlign=middle;spacingTop=-1;spacingLeft=3;spacingRight=3;rotatable=0;labelPosition=right;points=[];portConstraint=eastwest;strokeColor=inherit;" vertex="1" parent="SHzlHycUWzozJn87RdSD-19">
          <mxGeometry y="70" width="190" height="8" as="geometry" />
        </mxCell>
        <mxCell id="SHzlHycUWzozJn87RdSD-22" value="+ method(type): type" style="text;strokeColor=none;fillColor=none;align=left;verticalAlign=top;spacingLeft=4;spacingRight=4;overflow=hidden;rotatable=0;points=[[0,0.5],[1,0.5]];portConstraint=eastwest;whiteSpace=wrap;html=1;" vertex="1" parent="SHzlHycUWzozJn87RdSD-19">
          <mxGeometry y="78" width="190" height="26" as="geometry" />
        </mxCell>
        <mxCell id="SHzlHycUWzozJn87RdSD-23" value="Extends" style="endArrow=block;endSize=16;endFill=0;html=1;rounded=0;entryX=0.007;entryY=1.031;entryDx=0;entryDy=0;entryPerimeter=0;" edge="1" parent="1" target="SHzlHycUWzozJn87RdSD-4">
          <mxGeometry width="160" relative="1" as="geometry">
            <mxPoint x="150" y="370" as="sourcePoint" />
            <mxPoint x="310" y="370" as="targetPoint" />
          </mxGeometry>
        </mxCell>
        <mxCell id="SHzlHycUWzozJn87RdSD-24" value="Extends" style="endArrow=block;endSize=16;endFill=0;html=1;rounded=0;exitX=0.55;exitY=0.009;exitDx=0;exitDy=0;entryX=0.508;entryY=1.039;entryDx=0;entryDy=0;entryPerimeter=0;exitPerimeter=0;" edge="1" parent="1" source="SHzlHycUWzozJn87RdSD-11" target="SHzlHycUWzozJn87RdSD-4">
          <mxGeometry width="160" relative="1" as="geometry">
            <mxPoint x="409.5" y="430" as="sourcePoint" />
            <mxPoint x="400" y="290" as="targetPoint" />
          </mxGeometry>
        </mxCell>
        <mxCell id="SHzlHycUWzozJn87RdSD-26" value="Extends" style="endArrow=block;endSize=16;endFill=0;html=1;rounded=0;entryX=1.001;entryY=1.039;entryDx=0;entryDy=0;entryPerimeter=0;exitX=0.5;exitY=0;exitDx=0;exitDy=0;" edge="1" parent="1" source="SHzlHycUWzozJn87RdSD-19" target="SHzlHycUWzozJn87RdSD-4">
          <mxGeometry width="160" relative="1" as="geometry">
            <mxPoint x="340" y="520" as="sourcePoint" />
            <mxPoint x="500" y="520" as="targetPoint" />
          </mxGeometry>
        </mxCell>
        <mxCell id="SHzlHycUWzozJn87RdSD-27" value="&amp;lt;&amp;lt;enum&amp;gt;&amp;gt;&lt;div&gt;DiaSemana&lt;/div&gt;" style="swimlane;fontStyle=1;align=center;verticalAlign=top;childLayout=stackLayout;horizontal=1;startSize=40;horizontalStack=0;resizeParent=1;resizeParentMax=0;resizeLast=0;collapsible=1;marginBottom=0;whiteSpace=wrap;html=1;" vertex="1" parent="1">
          <mxGeometry x="30" y="42" width="180" height="168" as="geometry">
            <mxRectangle x="620" y="20" width="100" height="40" as="alternateBounds" />
          </mxGeometry>
        </mxCell>
        <mxCell id="SHzlHycUWzozJn87RdSD-28" value="- DOMINGO&lt;div&gt;- SEGUNDA&lt;/div&gt;&lt;div&gt;- TERCA&lt;/div&gt;&lt;div&gt;- QUARTA&lt;/div&gt;&lt;div&gt;- QUINTA&lt;/div&gt;&lt;div&gt;- SEXTA&lt;/div&gt;&lt;div&gt;- SABADO&lt;/div&gt;" style="text;strokeColor=none;fillColor=none;align=left;verticalAlign=top;spacingLeft=4;spacingRight=4;overflow=hidden;rotatable=0;points=[[0,0.5],[1,0.5]];portConstraint=eastwest;whiteSpace=wrap;html=1;" vertex="1" parent="SHzlHycUWzozJn87RdSD-27">
          <mxGeometry y="40" width="180" height="120" as="geometry" />
        </mxCell>
        <mxCell id="SHzlHycUWzozJn87RdSD-29" value="" style="line;strokeWidth=1;fillColor=none;align=left;verticalAlign=middle;spacingTop=-1;spacingLeft=3;spacingRight=3;rotatable=0;labelPosition=right;points=[];portConstraint=eastwest;strokeColor=inherit;" vertex="1" parent="SHzlHycUWzozJn87RdSD-27">
          <mxGeometry y="160" width="180" height="8" as="geometry" />
        </mxCell>
        <mxCell id="SHzlHycUWzozJn87RdSD-31" value="DataInvalidaException" style="swimlane;fontStyle=1;align=center;verticalAlign=top;childLayout=stackLayout;horizontal=1;startSize=26;horizontalStack=0;resizeParent=1;resizeParentMax=0;resizeLast=0;collapsible=1;marginBottom=0;whiteSpace=wrap;html=1;" vertex="1" parent="1">
          <mxGeometry x="620" y="210" width="160" height="60" as="geometry" />
        </mxCell>
        <mxCell id="SHzlHycUWzozJn87RdSD-32" value="- mensagem: String" style="text;strokeColor=none;fillColor=none;align=left;verticalAlign=top;spacingLeft=4;spacingRight=4;overflow=hidden;rotatable=0;points=[[0,0.5],[1,0.5]];portConstraint=eastwest;whiteSpace=wrap;html=1;" vertex="1" parent="SHzlHycUWzozJn87RdSD-31">
          <mxGeometry y="26" width="160" height="26" as="geometry" />
        </mxCell>
        <mxCell id="SHzlHycUWzozJn87RdSD-33" value="" style="line;strokeWidth=1;fillColor=none;align=left;verticalAlign=middle;spacingTop=-1;spacingLeft=3;spacingRight=3;rotatable=0;labelPosition=right;points=[];portConstraint=eastwest;strokeColor=inherit;" vertex="1" parent="SHzlHycUWzozJn87RdSD-31">
          <mxGeometry y="52" width="160" height="8" as="geometry" />
        </mxCell>
        <mxCell id="SHzlHycUWzozJn87RdSD-35" value="" style="endArrow=diamondThin;endFill=0;endSize=24;html=1;rounded=0;entryX=0.25;entryY=0;entryDx=0;entryDy=0;" edge="1" parent="1" target="SHzlHycUWzozJn87RdSD-7">
          <mxGeometry width="160" relative="1" as="geometry">
            <mxPoint x="110" y="210" as="sourcePoint" />
            <mxPoint x="590" y="240" as="targetPoint" />
          </mxGeometry>
        </mxCell>
      </root>
    </mxGraphModel>
  </diagram>
</mxfile>
